<svg width="88" height="88" viewBox="0 0 88 88" fill="none" xmlns="http://www.w3.org/2000/svg">
<path d="M79.75 59.125H19.7038C21.0788 56.4334 22.5156 53.5872 23.9009 50.6825C29.1053 51.9028 35.6331 47.9119 43.3366 38.7922C44.5981 43.0891 47.6438 50.765 53.3328 50.875H53.4531C56.4472 50.875 59.5169 48.7266 62.7894 44.3231C64.3397 47.1419 68.5128 50.875 79.75 50.875C80.1147 50.875 80.4644 50.7301 80.7223 50.4723C80.9801 50.2144 81.125 49.8647 81.125 49.5C81.125 49.1353 80.9801 48.7856 80.7223 48.5277C80.4644 48.2699 80.1147 48.125 79.75 48.125C65.01 48.125 64.625 41.5113 64.625 41.25C64.6246 40.9539 64.5286 40.6658 64.3513 40.4287C64.174 40.1915 63.9249 40.0179 63.641 39.9337C63.3571 39.8495 63.0536 39.8592 62.7757 39.9614C62.4978 40.0635 62.2602 40.2526 62.0984 40.5006C58.0044 46.7844 55.1444 48.125 53.4463 48.125H53.3844C48.9156 48.0391 46.0659 39.0088 45.3475 35.5403C45.2927 35.2878 45.1678 35.0559 44.9872 34.8711C44.8067 34.6863 44.5777 34.5561 44.3265 34.4955C44.0754 34.4348 43.8122 34.4462 43.5672 34.5282C43.3222 34.6103 43.1052 34.7597 42.9413 34.9594C35.7431 43.9897 29.5144 48.5547 25.135 48.0906C33.4503 30.0781 36.1591 18.2738 33.1684 12.9834C32.3125 11.4503 30.4906 9.625 26.7816 9.625C22.031 9.625 18.0606 14.5784 16.1563 22.8731C14.9638 28.1143 14.7841 33.5351 15.6269 38.8438C16.5344 44.0997 18.5109 47.7984 21.3641 49.6203C19.7897 52.9203 18.1672 56.1516 16.6066 59.1353H8.25001C7.88534 59.1353 7.5356 59.2802 7.27774 59.538C7.01988 59.7959 6.87501 60.1456 6.87501 60.5103C6.87501 60.875 7.01988 61.2247 7.27774 61.4826C7.5356 61.7405 7.88534 61.8853 8.25001 61.8853H15.1594C10.7353 70.1938 7.12595 76.2128 7.07095 76.3022C6.97791 76.457 6.91629 76.6287 6.8896 76.8073C6.86291 76.9859 6.87169 77.1681 6.91542 77.3434C6.95916 77.5186 7.03699 77.6835 7.14448 77.8287C7.25198 77.9739 7.38701 78.0964 7.54189 78.1894C7.75635 78.3153 8.00139 78.3795 8.25001 78.375C8.48739 78.3751 8.72074 78.3137 8.92736 78.1968C9.13398 78.08 9.30683 77.9116 9.42908 77.7081C9.48408 77.6153 13.5025 70.9191 18.2703 61.875H79.75C80.1147 61.875 80.4644 61.7301 80.7223 61.4723C80.9801 61.2144 81.125 60.8647 81.125 60.5C81.125 60.1353 80.9801 59.7856 80.7223 59.5277C80.4644 59.2699 80.1147 59.125 79.75 59.125ZM18.3356 38.3659C17.5605 33.4181 17.7344 28.3679 18.8478 23.485C20.075 18.1156 22.8044 12.375 26.7816 12.375C29.3666 12.375 30.2981 13.4956 30.7725 14.3344C34.0313 20.075 27.4725 36.4375 22.55 47.0938C20.5425 45.6122 19.0644 42.5666 18.3356 38.3659Z" fill="#1A2856"/>
</svg>
