<svg width="40" height="40" viewBox="0 0 40 40" fill="none" xmlns="http://www.w3.org/2000/svg">
<path d="M6.66665 5C4.81665 5 3.33331 6.48333 3.33331 8.33333V25C3.33331 25.8841 3.6845 26.7319 4.30962 27.357C4.93474 27.9821 5.78259 28.3333 6.66665 28.3333H20V36.6667L25 31.6667L30 36.6667V28.3333H33.3333C34.2174 28.3333 35.0652 27.9821 35.6903 27.357C36.3155 26.7319 36.6666 25.8841 36.6666 25V8.33333C36.6666 7.44928 36.3155 6.60143 35.6903 5.97631C35.0652 5.35119 34.2174 5 33.3333 5H6.66665ZM20 8.33333L25 11.6667L30 8.33333V14.1667L35 16.6667L30 19.1667V25L25 21.6667L20 25V19.1667L15 16.6667L20 14.1667V8.33333ZM6.66665 8.33333H15V11.6667H6.66665V8.33333ZM6.66665 15H11.6666V18.3333H6.66665V15ZM6.66665 21.6667H15V25H6.66665V21.6667Z" fill="url(#paint0_linear_5102_434)"/>
<defs>
<linearGradient id="paint0_linear_5102_434" x1="3.33331" y1="20.8333" x2="36.6666" y2="20.8333" gradientUnits="userSpaceOnUse">
<stop stop-color="#1A2856"/>
<stop offset="1" stop-color="#334EA9"/>
</linearGradient>
</defs>
</svg>
